<svg width="457" height="201" fill="none" xmlns="http://www.w3.org/2000/svg"><path d="m380.4 71.9 25.4-69.6H431L456.7 72h-20.2l-3.7-12.6h-28.6l-3.8 12.6h-20Zm35.7-49-7.5 23h20.1l-7.5-23-1.2-3.4-.8-3.6a3 3 0 0 1-.3-1.2l-.2-1.2-.3 1.2-.2 1.2-.1.5-.1.3-.8 3.2c-.5 1-.8 2-1.1 3Zm-117.7 49V2.3h19.5L345.8 38l2 3.3 2 3.4 1.4 2.8 1.4 2.8a131113.6 131113.6 0 0 1-.5-4.6l-.3-4.5-.1-4.7V2.4h19.4V72h-19.4l-28.1-36c-.8-.8-1.5-1.8-2.2-3l-2-3.9c-.4-1-.9-1.8-1.4-2.7l-1.2-2.7a76 76 0 0 1 1.2 13.9v34.3h-19.6Zm-88-51.6c3.6-6.2 8.5-11 14.9-14.2a42.8 42.8 0 0 1 34.1-2.7 34.8 34.8 0 0 1 20.9 17.1 36 36 0 0 1 4.5 17.4l-.1 2.3-.2 2.2a34.3 34.3 0 0 1-2.4 8.9c-3.3 7-8.3 12.6-15.2 16.5a43.8 43.8 0 0 1-21.7 5.8l-1.6-.1h-1.5a44.6 44.6 0 0 1-15.3-4 36.6 36.6 0 0 1-20.9-32.2l.1-2.8c.1-1 .2-2 .5-3 .4-1.8.9-3.8 1.6-5.6.4-2 1.3-3.8 2.3-5.6Zm52.8 25 .6-2.3.5-2.4.1-1.5.1-1.4-.1-1.4V35c-.4-3-1.4-6-3-9s-3.9-5.2-6.7-6.8l-2.3-1-2.3-.7-2.3-.2c-.8-.2-1.5-.2-2.3-.2-3.9 0-7.6 1.1-10.9 3.4a18.5 18.5 0 0 0-7 9.4l-.2.4v.5l-.6 2-.5 2.1-.2 1.5v2.3l.1.7c.2 3.9 1.5 7.6 3.7 11 2.3 3.4 5.5 5.7 9.5 6.8l1.4.5 1.5.2 1.4.2h1.4a18.7 18.7 0 0 0 18.1-12.8Zm-82.1 20.1c-3.6 2.4-7.6 4-11.8 4.8-4.2.8-8.6 1.4-12.9 1.6h-27.5V2.4H154l3.6.1c4.2.2 8.3.8 12.3 1.6a32.2 32.2 0 0 1 21.4 16c2.4 4.8 3.8 9.6 4.1 14.5l.1 1.3v2.7a36.2 36.2 0 0 1-3.9 15c-2.4 4.8-6 8.8-10.5 11.9Zm-32.4-9.1h1.5c.3 0 .6 0 .8.2h3.1l2.4-.2c2-.2 4-.5 5.9-1a15 15 0 0 0 10.7-9c1.2-2.9 1.9-6 1.9-9v-.9l-.1-.8c-.2-2.7-.9-5.5-2.1-8a14.7 14.7 0 0 0-5.1-6.2c-1.6-1.2-3.5-2-5.5-2.5s-4-.7-6-.8h-7.5v38.2ZM68.8 71.9V2.3h45.4v15.1H88.6v12.3h24v14.8h-24v11.8h25.5v15.6H68.8ZM9.4 49.5l.1.2h.2c2.1 2.3 4.5 4.3 7.1 6.2 2.6 1.8 5.7 2.8 9.1 3h.5l.2.1h1.3l1-.2c1.2-.2 2.4-.6 3.5-1.3a6.6 6.6 0 0 0 2.7-2.4l.2-.5.2-.5.3-1.4.1-1.2c0-2-.9-3.6-2.8-4.9a21.4 21.4 0 0 0-8.2-3.9l-2.2-.5h-.2l-.2-.1c-3.8-.9-7.4-2.3-10.7-4.2-3.3-2-5.6-4.8-6.9-8.3L4 27.3a11 11 0 0 1-.3-2.5v-3.2l.3-1.8c.2-1.5.6-3 1.2-4.3.5-1.4 1.2-2.8 2.1-4C9.8 7.7 13 5 16.8 3.2A31 31 0 0 1 32.1 1l3.3.3a47.5 47.5 0 0 1 15.9 5.7l-6.4 13.5a56.6 56.6 0 0 0-6.6-3.9 16.7 16.7 0 0 0-7.5-1.6h-.9c-1.8.2-3.4 1-5 2.3-1.5 1.2-2.3 2.5-2.3 4v.7l.3.6c.2.5.4 1 .8 1.4l1.3 1.3c.9.6 2.1 1.3 3.7 1.8l5.1 1.5a258.5 258.5 0 0 1 7.8 2c4.3 1.4 7.6 3.9 9.8 7.4 2.2 3.3 3.3 7 3.4 10.7v.5l-.1 1.4v1.2c-.5 3.7-1.8 7.4-3.9 10.8a21.5 21.5 0 0 1-12.6 9.4l-4.2 1a39 39 0 0 1-3.5.4c-1.1.2-2.2.2-3.4.2h-1.4A42.2 42.2 0 0 1 0 63.5l9.4-14ZM351 187.8l.2-.8.5-.8.8-.5 1.1-.2c.5 0 .9 0 1.3.3.4.2.8.3 1.1.6l.6 1 .2 1.2c0 .8-.2 1.5-.5 2.2-.3.7-.7 1.4-1.3 1.8a5 5 0 0 1-.8.7l-.9.5c-.3 0-.5.2-.7.3l-.4.2-1.4-1.9.8-.3.9-.5.7-.8c.2-.2.3-.5.3-.9-.6 0-1.2-.2-1.7-.6-.6-.2-.8-.7-.8-1.5Zm7.8 0a2.6 2.6 0 0 1 .7-1.6l.8-.5 1.1-.2c.5 0 .9 0 1.3.3.4.2.8.3 1.1.6l.6 1 .2 1.2c0 .7-.1 1.5-.5 2.2-.3.7-.7 1.4-1.3 1.8a5 5 0 0 1-1.7 1.2c-.3 0-.5.2-.7.3l-.4.2-1.3-1.9.8-.3.9-.5.7-.8c.2-.2.3-.5.3-.9-.6 0-1.2-.2-1.7-.6-.7-.2-.9-.7-.9-1.5ZM94.2 132.6l-.2.9a2 2 0 0 1-.5.7c-.5.5-1.2.8-1.9.8-.4 0-.9-.1-1.3-.3l-1.1-.7c-.3-.2-.5-.6-.6-.9l-.2-1.2c0-.9.2-1.5.5-2.3.3-.6.7-1.3 1.3-1.8l.8-.6.9-.5c.3 0 .5-.3.7-.4.2 0 .3 0 .4-.2l1.3 2c-.3 0-.6.1-.8.3l-.9.5-.7.7c-.2.3-.3.6-.3 1 .7 0 1.2.2 1.7.5.7.4.9.9.9 1.5Zm-7.8 0c0 .6-.2 1.2-.7 1.6l-.8.6-1.1.2c-.4 0-.9-.1-1.3-.3l-1.1-.7c-.3-.2-.5-.6-.6-.9l-.2-1.2c0-.9.2-1.5.5-2.3.3-.6.7-1.3 1.3-1.8l.8-.6.9-.5c.3 0 .5-.3.7-.4.2 0 .3 0 .4-.2l1.3 2-.8.3-.9.5-.7.7c-.2.3-.3.6-.3 1 .7 0 1.2.2 1.7.5.6.4.9.9.9 1.5Zm245.3 53.5h3.8l11.8-19.3h-3.8L331.7 186Zm-.1 1.5c-1.2 0-2.2.9-2.2 2 0 1.2.9 2 2.2 2 1.2 0 2.2-.8 2.2-2s-1-2-2.2-2Zm-26.4-5.2 1.1-1.8c4.4-5.7 7.3-4.1 6-2l-1.8 3c-1.1 1.7-4.5 3-5.3.8Zm25.1 2.7c-.2-.6-.9-1.1-1.4-1.2l-.3.3a24.4 24.4 0 0 1-4.5 3.8c1.2-3.4.9-8.5 3.3-13.1l-2.8-1.5c-1.6 2-5 6.7-8.4 10.5l-.3.3c-2.7 3-5.4 5.3-7 5.3-.8 0-1.6-.7-1.6-2.3v-1.5c2.7.3 5.5-1.3 7.2-4.3l1-1.6c3.5-5.6-2.2-7.5-6.1-4.2l5.4-8.7H311l-10.8 17.5-.7-.4-.3.3c-2.7 3-6.2 5.3-8.9 5.3-2.3 0-3.7-1.4-2-4.2l3.9-6.4c2.2-3.5 6-3 3.8.7l-.5.9h3.1l.5-.9c2-3.2.1-5.7-3-5.7a8 8 0 0 0-7.1 4.2l-3.7 6-.2-.1-.3.3c-2.7 3-5.4 5.3-7 5.3-.8 0-1.3-.5-.4-2l8.1-13.2h-3.8l-6.7 11c-2.9 2.4-5.1 3.8-5.8 3.5-.9-.4 0-1.7.5-2.5l7.4-12.1h-3.8l-7.3 12c-.8.6-2.4 1.2-3.2 1.7 1.2-3.4.9-8.5 3.3-13.1l-2.8-1.5c-1.6 2-10.3 13-13.7 16.7.3.5.9.8 1.4 1.2a825 825 0 0 0 10.7-12.7c-1.5 3.7-.7 10.4-4.3 10.4-1.3 0-1.8-1.4-1.8-1.4l-2.4 1.2a4 4 0 0 0 4.1 2.8l1.1-.1h.1c1.9-.3 4.6-1 6.4-2.3 0 1.4.9 2.4 2.5 2.4 2.1 0 4.4-1.8 6.2-3.4-.4 1.9.8 3.4 3.2 3.4 2.3 0 5-1.8 7.4-4.1 0 2.3 2 4 5.1 4 3.1 0 6.1-1.5 8.7-3.7l-2.1 3.5h3.8l4.3-7v2.8c0 3 .6 4.6 3.7 4.6s6.7-3.1 9.8-6.6c2.1-2.3 4-4.8 5.4-6.5-1.5 3.7-.7 10.4-4.3 10.4-1.3 0-1.8-1.4-1.8-1.4l-2.4 1.2a4 4 0 0 0 4.1 2.8l1.1-.1h.1c4-.5 7.8-3.4 10.6-6.5Zm-114.6-1h-.2c-1.2 0-2.2 1-2.2 2.1 0 .5.1.9.4 1.3-1.8 2.9-6.1 2.4-3.9-1.4l2.9-4.7 1.8-2.9c2.7-4.2 6.3-2.5 4 1.2l-2.8 4.4Zm-25.4 13.3c-.8 1.3-2.1 1.2-2.1.2s.9-2 3.8-3l-1.7 2.8Zm-28.8-13c-2.3 3.4-4.5 5-6.1 5-.8 0-1.3-.5-.4-2l5.3-8.6c2-3.3 6.1-2.4 4.2.8l-3 4.8Zm-12-13.8c1.1-1.8 2.4-2.6 3.4-2.6 1.4 0 2.1.8 2.1 2.2 0 3.2-4.4 10.1-10.2 9.3h-.8l5.5-8.9Zm92.8 13.3-.3.3c-2.7 3-5.4 5.3-7 5.3-.8 0-1.3-.5-.4-2l5.4-9c1.6-2.7.1-4.6-2-4.6-1.6 0-3.3.9-5.2 2.7l1.4-2.4h-3.8l-6.1 9.9-.5-.3-.3.3a8 8 0 0 1-5.7 2.6l3.6-5.7c2.3-3.8.2-7.3-3.4-7.3-2.9 0-5.2 1.2-7.3 4.6l-1.9 3-1.6 2.7-.3-.2-.3.3a25 25 0 0 1-8.8 6.7l10.4-16.6h-3.8l-6.7 11c-2.9 2.4-5.2 3.9-5.9 3.6-.9-.4 0-1.7.5-2.5l7.4-12.1h-3.8l-6 9.8-.3-.2-.3.3c-2.7 3-5.4 5.3-7 5.3-.8 0-1.3-.5-.4-2l5.4-9c1.6-2.7.1-4.6-2-4.6-1.6 0-3.3.9-5.2 2.7l1.4-2.4h-3.8l-6 9.8-.4-.2-.3.3c-2.7 3-5.4 5.3-7 5.3-.8 0-1.3-.5-.4-2l6.1-10h-2.1c.1-1.5-1.5-3.6-4-3.6-2 0-4.9 1.5-6.5 4.2l-3.9 6.3-.8-.5-.3.3c-2.7 3-4.8 5.3-8.6 5.3-2.6 0-4.1-2.4-1.9-6l1.1-1.8 2.1.2c4 0 8.6-2 11.6-6.8a9 9 0 0 0 1.5-4.8c0-3.2-2.2-5.3-5-5.3-2.1 0-4.5 1.4-6.2 4.1l-5.9 9.5a5.8 5.8 0 0 1-3.4-5c0-1.6.8-3.3 2.4-4.6l-1.2-2a8 8 0 0 0-3.9 6.6 8 8 0 0 0 4.8 7l-1.1 1.9c-2.7 4.3-1.1 9.1 4.2 9.1 4.2 0 6.1-1.8 8.7-4.1-.8 2.2.4 4.1 3 4.1 1.5 0 3.4-1 5.2-2.3.2 1.4 1.3 2.3 3.3 2.3 1.8 0 3.8-1 5.7-2.6l-1.4 2.2h3.8l5.8-9.5c5.8-6.7 8.4-5.9 6.7-3.3l-4.9 8c-1.6 2.7-.5 5.1 2.6 5.1 2 0 4.3-1.3 6.4-3.2-.5 2 .5 3.2 2.4 3.2 1.8 0 3.9-1.4 5.6-2.8l-2.1 3.4c-5.1 1.4-8.3 3.4-8.3 6 0 3.5 5.6 4.2 8.3-.2l2.9-4.7c3.2-1 6.3-2.8 9.5-5.8-.5 5 6.5 6 10.7 1h.8c1.4 0 3.2-.5 4.9-1.4l-2.5 4.1h3.8l5.8-9.5c5.8-6.7 8.4-5.9 6.7-3.3l-4.9 8c-1.6 2.7-.5 5.1 2.6 5.1s6.7-3 9.8-6.6l-1.2-.7Zm118.6-33.5c-2.3 3.5-4.6 5.2-6.2 5.2-.8 0-1.3-.6-.4-2l5.3-8.6c2-3.3 6.1-2.5 4.2.7l-2.9 4.7Zm-36.2.2c-2.3 3.4-4.5 5-6.1 5-.8 0-1.3-.6-.4-2l5.3-8.6c2-3.3 6.1-2.5 4.2.7l-3 4.9Zm-39.9 13c-.8 1.3-2.1 1.1-2.1.2 0-1 .9-2 3.8-3l-1.7 2.8Zm8-26.8c1.1-1.8 2.4-2.7 3.4-2.7 6 0 1.5 13.6-8.1 11.5h-.8l5.5-8.8Zm77.7 13.2-.3.3c-2.7 3-5.4 5.4-7 5.4-.8 0-1.3-.6-.4-2l12.8-20.8h-3.8l-5.6 9c-.7-1-1.9-1.8-3.5-1.8-2 0-4.9 1.5-6.5 4.1l-3.7 6h-.2l-.3.2c-2.7 3-5 5.4-6.7 5.4-.8 0-1.3-.6-.4-2l5.5-9c1.6-2.8.1-4.6-2-4.6-1.6 0-3.3.8-5.2 2.6l1.4-2.4h-3.8l-6 9.8-.4-.2-.3.3c-2.7 3-5.4 5.4-7 5.4-.8 0-1.3-.6-.4-2l6.1-10h-2.1c.1-1.6-1.5-3.6-4-3.6-2 0-4.9 1.5-6.5 4.1l-3.7 6-.2.1c-2.7 3-5.8 5.4-7.4 5.4-.8 0-1.3-.6-.4-2l3.8-6.2c1.3-2.2.7-3.4-.5-4.8l-2.1-2.4c-.5-.6-.5-1.4.2-2l-2-2c-2.1 1.8-2.3 3.9-1 5.5l.3.3c-1.7 2.3-3.9 5.3-6.4 8l.3.3a25.6 25.6 0 0 1-8.7 6.8l4.8-7.7h-3.8l-.4.6c-2 3.3-4.3 5.7-7.2 5.7-2.6 0-3-2.5-.8-6l1.1-1.8 2.1.2c13.4 0 19.9-17 8.1-17-2.1 0-4.5 1.4-6.2 4.2l-5.9 9.5a5.8 5.8 0 0 1-3.4-5.1c0-1.6.8-3.3 2.4-4.5l-1.2-2.1a8 8 0 0 0-3.9 6.6 8 8 0 0 0 4.8 7l-1.1 2c-2.7 4.2-2.2 9 3.2 9 1.6 0 2.9-.4 4.1-1l-1 1.5c-5.1 1.5-8.3 3.4-8.3 6.1 0 3.4 5.6 4.2 8.3-.3l2.9-4.7c3.9-1 7.8-3.6 11.9-8.1l-.2-.4c1.7-1.9 3.1-3.7 6-7.3l.5.6c.5.6.7 1.3.2 2l-4 6.5c-1.6 2.6-.5 5 2.6 5 1.9 0 4.3-1 6.4-2.8 0 1.6 1.1 2.8 3.3 2.8 1.5 0 3.4-.9 5.2-2.3.2 1.4 1.3 2.3 3.3 2.3 1.8 0 3.8-1 5.7-2.6l-1.4 2.3h3.8l5.8-9.5c5.8-6.8 8.4-6 6.7-3.3l-4.9 8c-1.6 2.6-.5 5 2.6 5 2 0 3.8-1.3 6-3-.2 1.7 1 3 3.3 3 1.5 0 3.4-.9 5.2-2.3.2 1.4 1.3 2.3 3.3 2.3 3.1 0 6.7-3 9.8-6.5-.5-.3-1.1-.9-1.6-1Zm-112.3-5c2.2-3.4 6-2.9 3.8.8l-.5.8c-1.8 3-4.3 2.9-5.7 2.4l2.4-4Zm-3 12.8c4.3 0 8.5-3 11.7-6.5-.3-.5-.9-1-1.4-1.3l-.3.3c-2.7 3-6.2 5.4-8.9 5.4-2.3 0-3.7-1.4-2-4.3l.4-.6c2.4 1 7 .5 9.8-4.2l.5-.8c2-3.3.1-5.7-3-5.7-3 0-5.5 1.5-7.1 4.1l-3.7 6-.1-.2-.3.3c-2.7 3-5.4 5.4-7 5.4-.8 0-1.3-.6-.4-2l5.4-9c1.6-2.8.1-4.6-2-4.6-1.6 0-3.4.8-5.3 2.7l6-9.9h-3.8L233 150.3l-.4-.3-.3.3c-2.7 3-5.4 5.4-7 5.4-.8 0-1.3-.6-.4-2l8.1-13.3h3.1l1.1-1.7h-3.1l3.6-5.8h-3.8l-3.6 5.8h-3.4l-1.1 1.7h3.4l-7.6 12.5c-1.6 2.6-.5 5 2.6 5 1.9 0 3.9-1.1 5.9-2.8l-1.5 2.5h3.8l5.7-9.4c5.8-7 8.4-6 6.8-3.4l-4.9 8c-1.6 2.6-.5 5 2.6 5 2.3 0 4.8-1.7 7.3-4 .2 2.3 2.2 4 5.3 4ZM127.7 145c2.2-3.4 6-2.9 3.8.8l-.5.8c-1.8 3-4.3 2.9-5.7 2.4l2.4-4Zm23.1 8.7 5.3-8.6c2-3.3 6.1-2.5 4.2.7l-2.9 4.9c-2.3 3.4-4.5 5-6.1 5-.9-.1-1.4-.6-.5-2Zm54-8.6c2.2-3.5 6-3 3.8.7l-.5.8c-1.8 3-4.2 2.9-5.7 2.4l2.4-4ZM147 154c-.6 2 .6 3.8 3.1 3.8 1.5 0 3.4-.9 5.2-2.3.2 1.4 1.3 2.3 3.3 2.3 2 0 4.2-1.3 6.4-3-.4 1.8.5 3 2.4 3 2.1 0 4.4-1.7 6.2-3.3-.4 1.8.8 3.3 3.2 3.3 3.1 0 6.7-3 9.8-6.5l-.1-.2c2.1-2.3 3.9-4.7 5.2-6.4-1.5 3.6-.7 10.3-4.3 10.3-1.3 0-1.8-1.3-1.8-1.3l-2.4 1.1s.7 3 4.1 3c.4 0 .7 0 1.1-.2h.1c2.8-.3 5.5-2 7.9-3.9.1 2.4 2 4 5.1 4 4.3 0 8.5-3 11.7-6.5-.3-.5-.9-1-1.4-1.3l-.3.3c-2.7 3-6.2 5.4-8.9 5.4-2.3 0-3.7-1.4-2-4.3l.4-.6c2.4 1 7 .5 9.8-4.1l.5-.9c2-3.3.1-5.7-3-5.7a8 8 0 0 0-7.1 4.1l-3.7 6h-.1l-.3.2a24.4 24.4 0 0 1-4.5 3.9c1.2-3.4.9-8.6 3.3-13.2l-2.8-1.4c-1.6 2-5 6.7-8.4 10.4l.1.1-.1.2c-2.7 3-5.4 5.4-7 5.4-.8 0-1.3-.6-.4-2l8.1-13.3h-3.8l-6.7 11c-2.9 2.5-5.1 3.9-5.8 3.5-.9-.4 0-1.7.5-2.4l7.4-12.2h-3.8l-6 9.8c-.1 0-.2 0-.3-.2l-.3.3c-2.7 3-5.4 5.4-7 5.4-.8 0-1.3-.6-.4-2l6.1-10h-2.1c.1-1.6-1.5-3.6-4-3.6-2 0-4.9 1.5-6.5 4.1l-3.8 6.2c-.2 0-.4-.3-.6-.4l-.3.3c-2.7 3-5.9 5.4-8.5 5.4-2.3 0-3.7-1.4-2-4.3l3.9-6.3c2.2-3.5 6-3 3.8.7l-.5.9h3.1l.5-.9c2-3.3.1-5.7-3-5.7s-5.1 1.5-6.7 4.1l-3.8 6c-.1 0-.2 0-.3-.2l-.3.3c-2.7 3-5.9 5.4-8.6 5.4-2.3 0-3.7-1.4-2-4.3l.4-.6c2.4 1 7 .5 9.8-4.1l.5-.9c2-3.3.1-5.7-3-5.7a8 8 0 0 0-7.1 4.1l-4 6.4c-2.4 3.8-.3 7.2 4.1 7.2 3.3 0 6-1.8 8.8-4.3-.1 2.5 1.9 4.3 5.1 4.3 3.4.1 6.1-1.6 8.8-3.7Zm-36.9-13.2 3.1-4.9c2.8-4.5 6.3-1.9 4.4 1.5-1.5 2.6-3.6 3.4-7.5 3.4Zm-4.1 16.3c-2.3 0-4-.5-5.4-1.2.7-.8 1.3-1.6 1.9-2.6l6.4-10.3h1c8.8 1.8 5.3 14-3.9 14Zm9.4-14.6c7.6-2.4 8.2-11.4.7-11.4-2.1 0-4.5 1.4-6.2 4.2l-10.2 16.5c-.4.8-.9 1.4-1.5 2-2.6-3.4-1.9-8.5 1.8-10.6l-1.5-1.8c-7.9 4.7-5.6 18.4 7.6 18.4 11.3 0 16.5-12.8 9.3-17.3Z" fill="#fff"/></svg>