<svg width="256" height="28" fill="none" xmlns="http://www.w3.org/2000/svg"><path d="m51.3.8-2.8 4.6h-2.7l-.9 1.3h2.8l-6.1 9.8c-1.3 2-.4 4 2.1 4 1.8 0 3.7-1.3 5.6-3 0 3.6 5.3 4.2 8.6.5h.7c1.8 0 4.6-1 6.2-2.8-.2-.3-.7-.8-1.1-1l-.2.3c-1.4 1.4-3 2-4.6 2l2.8-4.5c1.8-2.9.1-5.7-2.7-5.7-2.3 0-4.1.8-5.9 3.7l-1.5 2.4-1.2 2-.2.2c-2.2 2.3-4.3 4.2-5.6 4.2-.7 0-1-.5-.3-1.5l6.5-10.5h2.5l.7-1.4h-2.5L54.3.8h-3ZM58.8 8c1 0 1.4 1.2.4 2.8L57 14.4h-.1c-1 0-1.8.7-1.8 1.7 0 .4.1.6.3 1-1.4 2.3-4.9 1.9-3.1-1l2.3-3.7 1.5-2.2c.9-1.5 2-2.1 2.7-2.1Zm22-7.3L78 5.4h-2.7l-.9 1.3h2.8L71 16.5c-1.3 2-.4 4 2.1 4 1.2 0 2.5-.7 3.9-1.6l-.8 1.2h3l4.6-7.4c4.6-5.5 6.7-4.7 5.4-2.6l-3.9 6.3c-1.3 2-.4 4 2.1 4 1.8 0 3.8-1.4 5.7-3.1.1 1.8 1.7 3 4.1 3 3.4 0 6.8-2.4 9.3-5.2-.2-.3-.7-.8-1.1-.9l-.2.2c-2.2 2.3-5 4.2-7.1 4.2-1.9 0-3-1-1.6-3.4l.3-.4c1.9.7 5.6.3 7.9-3.2l.4-.7c1.6-2.6.1-4.5-2.4-4.5A6.7 6.7 0 0 0 97 9.6l-2.9 4.7-.2.2c-2.2 2.3-4.3 4.2-5.6 4.2-.7 0-1-.5-.4-1.5l4.4-7c1.3-2.2.1-3.7-1.6-3.7-1.3 0-2.7.6-4.2 2.2L91.3.8h-3l-8.4 13.6-.2.2c-2.2 2.3-4.3 4.2-5.6 4.2-.7 0-1-.5-.3-1.5l6.5-10.5h2.5l.9-1.3h-2.5L84 .8h-3.2Zm21.3 7.7c1-.1 1.5.8.5 2.4l-.4.7c-1.4 2.2-3.4 2.2-4.5 1.8l1.9-3.1a3.6 3.6 0 0 1 2.5-1.8Zm44.3-5.1c-1.7 1.4-1.9 3-.8 4.3l.3.3a71 71 0 0 1-5.1 6.3l-.2.2c-1.4 1.4-3 2-4.6 2l2.8-4.5c1.8-2.9.1-5.7-2.7-5.7-2.3 0-4.1.8-5.9 3.7l-1.5 2.4-1.2 2-.2.2a20.3 20.3 0 0 1-7 5.3l6.8-10.7h-1.8c0-1.1-1.3-2.7-3.2-2.7-1.6 0-3.9 1.2-5.2 3.2l-4.2 6.8c-1.3 2-.4 4 2.1 4 .8 0 1.9-.5 2.9-1l-.8 1.3c-4.1 1.1-6.6 2.7-6.6 4.8 0 2.7 4.4 3.3 6.6-.2l2.3-3.7a17 17 0 0 0 7.2-4.2c0 3.6 5.3 4.3 8.6.5h.7c1.8 0 4.6-1 6.2-2.8l5-6 .4.5c.4.5.5 1 .2 1.6l-3.2 5.2c-1.3 2-.4 4 2.1 4 1.5 0 3.2-1 4.8-2.4-.1 1.4.9 2.3 2.6 2.3.8 0 1.9-.4 2.9-1l-.8 1.4c-4.1 1.1-6.6 2.7-6.6 4.8 0 2.7 4.4 3.3 6.6-.2l2.3-3.7a19 19 0 0 0 7.4-4.3c.1 1.8 1.7 3 4.1 3 2.5 0 4.9-1.3 7-3-.1 3.7 5.3 4.4 8.6.6h.7c.9 0 2.2-.3 3.4-.9-.8 2-.1 3.3 1.7 3.3 1.7 0 3.5-1.4 5-2.7-.3 1.5.7 2.7 2.6 2.7 2.5 0 5.4-2.4 7.9-5.2 1.7-1.8 3.2-3.7 4.3-5-1.2 2.9-.6 8.1-3.4 8.1-1 0-1.4-1-1.4-1l-1.9 1s.6 2.2 3.3 2.2h.9c3.1-.5 6.1-2.7 8.4-5.2-.2-.4-.7-.8-1.1-1l-.2.3a21.3 21.3 0 0 1-3.6 3c1-2.6.8-6.8 2.6-10.4l-2.3-1a112 112 0 0 1-6.7 8l-.2.3c-2.2 2.3-4.3 4.2-5.6 4.2-.7 0-1-.5-.3-1.5l6.4-10.5h-3l-5.4 8.7c-2.3 2-4.1 3-4.6 2.8-.8-.2 0-1.3.4-2l5.9-9.5h-3l-4.7 7.6-.2.2c-1.4 1.4-3 2-4.6 2l2.8-4.5c1.8-2.9.1-5.7-2.7-5.7-2.3 0-4.1.8-5.9 3.7l-1.5 2.4-1.2 2-.2.2c-2.2 2.3-5 4.2-7.1 4.2-1.9 0-3-1-1.6-3.4l.3-.4c1.9.7 5.6.3 7.9-3.2l.4-.7c1.6-2.6.1-4.5-2.4-4.5a6.7 6.7 0 0 0-5.7 3.2l-2.9 4.7-.2.2a20.3 20.3 0 0 1-7 5.3l6.8-10.7h-1.8c0-1.1-1.3-2.7-3.2-2.7-1.6 0-3.9 1.2-5.2 3.2l-2.9 4.6-.2.2c-2.2 2.3-4.3 4.2-5.6 4.2-.7 0-1-.5-.3-1.5l3-4.9c1-1.7.6-2.7-.4-3.7l-1.7-2c-.4-.4-.4-1 .2-1.5l-1.9-1.8ZM136.1 8c1 0 1.5 1.2.4 2.8l-2.2 3.5h-.1c-1 0-1.8.7-1.8 1.7 0 .4.1.6.3 1-1.4 2.3-4.9 1.9-3.1-1l2.3-3.7 1.5-2.2c.9-1.5 1.9-2.1 2.7-2.1Zm50.2 0c1 0 1.5 1.2.4 2.8l-2.2 3.5h-.1c-1 0-1.8.7-1.8 1.7 0 .4.1.6.3 1-1.4 2.3-4.9 1.9-3.1-1l2.3-3.7 1.5-2.2c.8-1.5 1.9-2.1 2.7-2.1Zm-11.7.4c1-.1 1.5.8.5 2.4l-.4.7c-1.5 2.2-3.4 2.2-4.5 1.8l1.9-3.1a3.6 3.6 0 0 1 2.5-1.8Zm-52.4.2c1 0 1.7.8.8 2.2l-2.3 3.8c-1.8 2.7-3.7 4-4.9 4-.7 0-1-.5-.3-1.5l4.2-6.9c.7-1 1.7-1.6 2.5-1.6Zm38.9 0c1 0 1.7.8.8 2.2l-2.3 3.8c-1.8 2.7-3.7 4-4.9 4-.7 0-1-.5-.3-1.5l4.2-6.9c.7-1 1.7-1.6 2.5-1.6Zm-45.3 14-1.4 2.2c-.6 1-1.7.9-1.7.1 0-.6.8-1.5 3.1-2.3Zm38.9 0-1.4 2.2c-.6 1-1.7.9-1.7.1.1-.6.8-1.5 3.1-2.3ZM0 11.7h28.9v1.8H0v-1.7Zm227.1 0H256v1.8h-28.9v-1.7Z" fill="#766458"/></svg>