<svg width="188" height="43" fill="none" xmlns="http://www.w3.org/2000/svg"><path d="M187.7 35.2v7.2h-20.8V.4h20.8v7.1h-13.2v10.2H185v7.2h-10.5v10.3h13.2ZM154.9.4h7.6v42h-7.6V21.7l-3 10.7h-7.4l-3-10.7v20.7h-7.6V.4h7.6l6.8 20.3L154.9.4ZM123 7.5h-5.5v27.6h5.5V7.5Zm3-7.1c2.5 0 4.7 2 4.7 4.4V38c0 2.4-2.2 4.4-4.7 4.4h-11.4c-2.6 0-4.7-2-4.7-4.4V4.8c0-2.4 2.1-4.4 4.7-4.4H126ZM98 26.9l7.7-1.7V38c0 2.4-2.2 4.4-4.7 4.4H89.6c-2.6 0-4.7-2-4.7-4.4V4.8c0-2.4 2.1-4.4 4.7-4.4H101c2.5 0 4.7 2 4.7 4.4v8.6L98 15V7.5h-5.5v27.6H98v-8.2Zm-16.8 8.3v7.2H63V.4h7.6v34.8h10.6Zm-21.4 0v7.2H39V.4h20.8v7.1H46.6v10.2h10.5v7.2H46.6v10.3h13.2ZM27.6.4h7.7l-1.3 42H19.5l-2-17.4-2 17.4H1L0 .4h7.6l.6 34.8H9L13.8.4h7.6l4.9 34.8h.8L27.6.4Z" fill="#81B3D3"/></svg>